<?xml version="1.0" encoding="UTF-8"?>
<svg width="474px" height="196px" viewBox="0 0 474 196" version="1.1" xmlns="http://www.w3.org/2000/svg" xmlns:xlink="http://www.w3.org/1999/xlink">
    <!-- Generator: Sketch 57.1 (83088) - https://sketch.com -->
    <title>Group 3</title>
    <desc>Created with Sketch.</desc>
    <g id="Page-1" stroke="none" stroke-width="1" fill="none" fill-rule="evenodd">
        <g id="DSK:-WK-30---Hoodies-Copy" transform="translate(-754.000000, -320.000000)" fill="#101A31" fill-rule="nonzero">
            <g id="Group-3" transform="translate(754.000000, 320.000000)">
                <path d="M5.68434189e-14,1.52 L20.824,1.52 L20.824,41.496 L36.176,41.496 L36.176,1.52 L57,1.52 L57,102.904 L36.176,102.904 L36.176,59.28 L20.824,59.28 L20.824,102.904 L5.68434189e-14,102.904 L5.68434189e-14,1.52 Z M106.232,0 C127.512,0 137.696,16.264 137.696,52.896 C137.696,89.224 127.208,104.424 105.776,104.424 C83.28,104.424 74.312,85.88 74.312,51.072 C74.312,15.656 84.952,0 106.232,0 Z M96.352,53.2 C96.352,76.152 97.416,86.336 106.232,86.336 C114.288,86.336 115.656,80.712 115.656,51.984 C115.656,26.6 114.592,18.088 105.776,18.088 C96.352,18.088 96.352,34.048 96.352,53.2 Z M183.736,0 C205.016,0 215.2,16.264 215.2,52.896 C215.2,89.224 204.712,104.424 183.28,104.424 C160.784,104.424 151.816,85.88 151.816,51.072 C151.816,15.656 162.456,0 183.736,0 Z M173.856,53.2 C173.856,76.152 174.92,86.336 183.736,86.336 C191.792,86.336 193.16,80.712 193.16,51.984 C193.16,26.6 192.096,18.088 183.28,18.088 C173.856,18.088 173.856,34.048 173.856,53.2 Z M232.512,1.52 L256.984,1.52 C291.032,1.52 295.288,30.096 295.288,51.072 C295.288,83.6 283.584,102.904 260.936,102.904 L232.512,102.904 L232.512,1.52 Z M252.88,19.152 L252.88,85.12 L258.96,85.12 C262.76,85.12 266.104,84.208 268.232,82.384 C272.64,78.736 273.248,64.448 273.248,52.592 C273.248,30.248 271.12,19.152 260.328,19.152 L252.88,19.152 Z M312.6,1.52 L333.424,1.52 L333.424,102.904 L312.6,102.904 L312.6,1.52 Z M353.928,1.52 L406.672,1.52 L406.672,19.304 L374.752,19.304 L374.752,42.864 L399.224,42.864 L399.224,59.736 L374.752,59.736 L374.752,85.12 L406.672,85.12 L406.672,102.904 L353.928,102.904 L353.928,1.52 Z M444.656,0 C458.032,0 467.76,6.992 472.32,23.256 L456.816,30.096 C455.144,22.8 451.344,18.24 445.264,18.24 C439.64,18.24 436.448,22.192 436.448,28.12 C436.448,34.504 438.88,37.088 451.648,42.56 C469.432,50.16 473.84,60.192 473.84,72.352 C473.84,91.808 462.136,104.424 443.136,104.424 C426.264,104.424 416.536,95.152 413.344,77.064 L429.912,71.288 C432.192,81.624 435.688,86.184 443.136,86.184 C449.824,86.184 453.472,81.624 453.472,75.392 C453.472,69.768 450.584,66.424 444.2,63.536 C422.464,53.656 416.992,45.296 416.992,29.488 C416.992,16.568 426.416,0 444.656,0 Z" id="HOODIES"></path>
                <path d="M92.685,149 L96.645,149 L99.395,185.685 L95.215,185.685 L94.555,174.96 L85.92,174.96 L81.96,185.685 L78,185.685 L92.685,149 Z M93.51,154.995 L87.35,171.44 L94.335,171.44 L93.51,154.995 Z M124.353421,149 L128.093421,149 L121.933421,185.685 L118.193421,185.685 L124.353421,149 Z M141.727632,158.075 C145.577632,158.075 148.987632,159.945 148.987632,164.565 C148.987632,165.885 148.767632,167.37 148.547632,168.69 L146.402632,181.34 C146.182632,182.55 146.127632,183.485 146.127632,184.2 L146.182632,185.685 L142.442632,185.685 C142.442632,184.42 142.662632,182.935 142.827632,182 C140.792632,185.08 138.482632,186.18 136.062632,186.18 C132.377632,186.18 130.177632,183.87 130.177632,179.635 C130.177632,173.31 134.247632,168.855 141.837632,168.855 C142.937632,168.855 143.817632,168.91 144.862632,169.075 C145.137632,167.7 145.467632,166.05 145.467632,164.895 C145.467632,162.475 144.147632,161.21 141.562632,161.21 C139.142632,161.21 137.437632,162.585 136.117632,165.83 L132.982632,164.345 C134.742632,160.22 137.712632,158.075 141.727632,158.075 Z M133.807632,179.14 C133.807632,181.835 135.127632,183.045 137.052632,183.045 C140.682632,183.045 143.267632,179.085 144.312632,172.21 C143.047632,172.045 142.332632,171.99 141.397632,171.99 C136.777632,171.99 133.807632,174.52 133.807632,179.14 Z M155.966842,158.57 L159.706842,158.57 L161.411842,177.82 L169.111842,158.57 L172.741842,158.57 L160.476842,187.39 C157.671842,193.99 155.856842,195.31 152.941842,195.31 C151.841842,195.31 151.346842,195.145 150.741842,194.87 L151.291842,191.625 C151.786842,191.735 152.391842,191.735 152.886842,191.735 C155.416842,191.735 156.186842,189.975 158.441842,184.255 L155.966842,158.57 Z M185.221053,158.075 C189.621053,158.075 192.206053,161.045 192.206053,167.26 C192.206053,168.965 192.041053,171 191.821053,172.595 L178.401053,172.595 C178.346053,173.53 178.236053,174.465 178.236053,175.73 C178.236053,181.065 179.831053,183.045 182.471053,183.045 C184.726053,183.045 186.431053,181.34 187.971053,177.6 L190.721053,179.14 C188.796053,183.925 185.991053,186.18 182.196053,186.18 C177.081053,186.18 174.331053,182.385 174.331053,175.62 C174.331053,166.435 178.236053,158.075 185.221053,158.075 Z M178.951053,169.46 L188.246053,169.46 C188.356053,168.085 188.411053,167.59 188.411053,166.6 C188.411053,162.86 187.146053,161.21 184.891053,161.21 C181.866053,161.21 179.776053,164.4 178.951053,169.46 Z M209.745263,158.405 C210.020263,158.405 210.515263,158.46 210.900263,158.515 L210.240263,162.53 C209.855263,162.475 209.525263,162.42 209.140263,162.42 C205.675263,162.42 202.870263,166.6 201.440263,175.235 L199.680263,185.685 L195.940263,185.685 L200.505263,158.57 L204.080263,158.57 L203.200263,164.015 C204.905263,160.275 206.940263,158.405 209.745263,158.405 Z M217.824474,149 L221.564474,149 L220.794474,153.565 L217.054474,153.565 L217.824474,149 Z M216.229474,158.57 L219.969474,158.57 L215.404474,185.685 L211.664474,185.685 L216.229474,158.57 Z M237.068684,158.075 C240.588684,158.075 241.963684,160.77 241.963684,163.85 C241.963684,165.665 241.248684,169.955 241.083684,170.945 L238.663684,185.685 L235.033684,185.685 L237.563684,170.67 C238.278684,166.27 238.278684,165.39 238.278684,164.455 C238.278684,162.31 237.453684,161.21 235.913684,161.21 C233.493684,161.21 230.413684,164.51 228.873684,173.64 L226.838684,185.685 L223.098684,185.685 L227.663684,158.57 L231.238684,158.57 L230.523684,163.025 C232.558684,159.45 234.428684,158.075 237.068684,158.075 Z M266.322895,152.905 C267.037895,152.905 267.422895,152.96 268.082895,153.18 L267.477895,156.59 C267.147895,156.48 266.817895,156.48 266.322895,156.48 C264.122895,156.48 263.462895,157.305 262.637895,160.33 C263.902895,161.705 264.617895,163.575 264.617895,166.215 C264.617895,172.045 261.207895,176.665 256.422895,176.665 C255.102895,176.665 254.002895,176.39 252.462895,175.455 C251.087895,176.39 250.592895,177.655 250.592895,178.7 C250.592895,180.68 251.637895,181.12 254.937895,181.12 C261.757895,181.12 263.462895,184.09 263.462895,187.665 C263.462895,192.67 259.447895,195.915 253.122895,195.915 C247.567895,195.915 244.432895,193.77 244.432895,189.7 C244.432895,187.06 245.587895,185.19 248.447895,183.65 C247.402895,182.55 247.017895,181.505 247.017895,180.02 C247.017895,177.435 248.282895,175.62 251.142895,173.915 C249.877895,172.32 249.272895,170.34 249.272895,168.195 C249.272895,162.75 252.627895,158.075 257.962895,158.075 C258.567895,158.075 259.062895,158.13 259.447895,158.185 L260.767895,158.57 C261.867895,154.555 263.517895,152.905 266.322895,152.905 Z M253.122895,168.305 C253.122895,171.605 254.277895,173.53 256.422895,173.53 C259.227895,173.53 260.712895,170.67 260.712895,166.27 C260.712895,162.97 259.832895,161.21 257.357895,161.21 C255.102895,161.21 253.122895,164.125 253.122895,168.305 Z M248.007895,188.93 C248.007895,191.57 249.822895,193 253.562895,193 C257.467895,193 259.612895,190.965 259.612895,188.16 C259.612895,186.62 259.172895,185.025 254.937895,185.025 C252.132895,185.025 251.197895,184.86 250.537895,184.695 C248.832895,185.52 248.007895,186.95 248.007895,188.93 Z M292.986316,158.075 C296.121316,158.075 298.486316,159.56 299.971316,164.235 L296.946316,165.61 C295.736316,162.09 294.636316,161.21 292.601316,161.21 C290.401316,161.21 288.916316,163.135 288.916316,165.28 C288.916316,167.425 289.906316,168.525 293.481316,170.34 C297.001316,172.1 298.541316,174.575 298.541316,177.875 C298.541316,182.55 295.681316,186.18 290.511316,186.18 C286.166316,186.18 283.581316,183.595 282.536316,178.92 L285.781316,177.71 C286.441316,181.01 288.036316,183.045 290.621316,183.045 C292.986316,183.045 294.691316,181.395 294.691316,178.535 C294.691316,176.28 293.756316,174.96 291.171316,173.695 C286.001316,171.22 285.341316,168.69 285.341316,165.995 C285.341316,161.265 288.806316,158.075 292.986316,158.075 Z M313.770526,151.475 L312.560526,158.57 L317.015526,158.57 L316.465526,161.705 L312.065526,161.705 L309.370526,177.875 C309.205526,178.81 309.095526,179.635 309.095526,180.24 C309.095526,181.945 310.030526,182.605 311.625526,182.605 C312.285526,182.605 312.615526,182.55 314.100526,182.275 L313.550526,185.685 C312.450526,185.96 311.515526,186.18 310.360526,186.18 C307.115526,186.18 305.245526,184.2 305.245526,181.12 C305.245526,179.745 305.685526,177.435 305.905526,176.17 L308.325526,161.705 L305.190526,161.705 L305.740526,158.57 L308.820526,158.57 L309.975526,151.86 L313.770526,151.475 Z M330.484737,158.075 C334.334737,158.075 337.744737,159.945 337.744737,164.565 C337.744737,165.885 337.524737,167.37 337.304737,168.69 L335.159737,181.34 C334.939737,182.55 334.884737,183.485 334.884737,184.2 L334.939737,185.685 L331.199737,185.685 C331.199737,184.42 331.419737,182.935 331.584737,182 C329.549737,185.08 327.239737,186.18 324.819737,186.18 C321.134737,186.18 318.934737,183.87 318.934737,179.635 C318.934737,173.31 323.004737,168.855 330.594737,168.855 C331.694737,168.855 332.574737,168.91 333.619737,169.075 C333.894737,167.7 334.224737,166.05 334.224737,164.895 C334.224737,162.475 332.904737,161.21 330.319737,161.21 C327.899737,161.21 326.194737,162.585 324.874737,165.83 L321.739737,164.345 C323.499737,160.22 326.469737,158.075 330.484737,158.075 Z M322.564737,179.14 C322.564737,181.835 323.884737,183.045 325.809737,183.045 C329.439737,183.045 332.024737,179.085 333.069737,172.21 C331.804737,172.045 331.089737,171.99 330.154737,171.99 C325.534737,171.99 322.564737,174.52 322.564737,179.14 Z M356.328947,158.075 C360.068947,158.075 362.323947,161.43 362.323947,166.765 C362.323947,169.13 361.883947,172.155 361.003947,175.565 C359.298947,182.33 356.163947,186.18 351.818947,186.18 C349.563947,186.18 347.913947,185.41 346.758947,182.275 L344.668947,194.87 L341.038947,194.87 L347.088947,158.57 L350.443947,158.57 L349.783947,162.42 C351.488947,159.78 353.743947,158.075 356.328947,158.075 Z M348.023947,177.545 C348.023947,180.845 349.343947,183.045 351.598947,183.045 C352.973947,183.045 354.073947,182.22 355.118947,180.515 C357.043947,177.435 358.473947,169.68 358.473947,166.05 C358.473947,162.805 357.428947,161.21 355.283947,161.21 C353.908947,161.21 352.698947,161.98 351.598947,163.575 C349.673947,166.435 348.023947,173.42 348.023947,177.545 Z M371.998158,149 L375.738158,149 L369.578158,185.685 L365.838158,185.685 L371.998158,149 Z M388.932368,158.075 C393.332368,158.075 395.917368,161.045 395.917368,167.26 C395.917368,168.965 395.752368,171 395.532368,172.595 L382.112368,172.595 C382.057368,173.53 381.947368,174.465 381.947368,175.73 C381.947368,181.065 383.542368,183.045 386.182368,183.045 C388.437368,183.045 390.142368,181.34 391.682368,177.6 L394.432368,179.14 C392.507368,183.925 389.702368,186.18 385.907368,186.18 C380.792368,186.18 378.042368,182.385 378.042368,175.62 C378.042368,166.435 381.947368,158.075 388.932368,158.075 Z M382.662368,169.46 L391.957368,169.46 C392.067368,168.085 392.122368,167.59 392.122368,166.6 C392.122368,162.86 390.857368,161.21 388.602368,161.21 C385.577368,161.21 383.487368,164.4 382.662368,169.46 Z" id="Alayeringstaple"></path>
            </g>
        </g>
    </g>
</svg>