<?xml version="1.0" encoding="UTF-8"?>
<svg viewBox="0 0 54 54" version="1.1" xmlns="http://www.w3.org/2000/svg" xmlns:xlink="http://www.w3.org/1999/xlink">
    <g stroke="none" stroke-width="1" fill="none" fill-rule="evenodd">
        <g id="jws" transform="translate(1.000000, 1.000000)">
            <circle id="Oval" stroke="currentColor" stroke-width="1" fill-opacity="0" fill="currentColor" fill-rule="evenodd" cx="26" cy="26" r="26"></circle>
            <path d="M32.6880554,20.2318727 L34.3063634,20.2318727 L29.7237938,31.5169182 L29.3672571,31.5169182 L25.6613111,22.3794636 L21.9168503,31.5169182 L21.5684292,31.5169182 L17.0000275,20.2318727 L18.6349794,20.2318727 L21.7586647,27.9777364 L24.9031204,20.2318727 L26.4371085,20.2318727 L29.5964199,27.9777364 L32.6880554,20.2318727 Z M39.3752975,26.7604864 L38.1419995,26.01785 C37.3684025,25.5494409 36.8180545,25.0888045 36.4909535,24.6356682 C36.1635785,24.1825318 36.0000275,23.6610773 36.0000275,23.0711682 C36.0000275,22.1864409 36.3096595,21.4679409 36.9290595,20.9155318 C37.5483215,20.3632591 38.3530055,20.0871227 39.3428345,20.0871227 C40.2893355,20.0871227 41.1574305,20.3505773 41.9472585,20.87735 L41.9472585,22.7032591 C41.1304705,21.92435 40.2515085,21.5348955 39.3103725,21.5348955 C38.7802435,21.5348955 38.3448895,21.6563954 38.0040335,21.8995318 C37.6633155,22.1425318 37.4928875,22.4535773 37.4928875,22.8328045 C37.4928875,23.16935 37.6184735,23.4846227 37.8695075,23.77835 C38.1205405,24.0720773 38.5241205,24.3806682 39.0803835,24.7037136 L40.3197345,25.4306682 C41.7022765,26.2493954 42.3936165,27.29135 42.3936165,28.5568045 C42.3936165,29.4577591 42.0893505,30.1896227 41.4808165,30.7526682 C40.8722835,31.3157136 40.0812175,31.5973045 39.1074815,31.5973045 C37.9878025,31.5973045 36.9682615,31.2561227 36.0487215,30.5737591 L36.0487215,28.5307591 C36.9249325,29.63135 37.9392465,30.1815773 39.0912505,30.1815773 C39.5996455,30.1815773 40.0230325,30.0413955 40.3611375,29.7608954 C40.6991045,29.4803954 40.8681565,29.1291227 40.8681565,28.7069409 C40.8681565,28.0229409 40.3704915,27.3741227 39.3752975,26.7604864 Z M12.1774599,20.2723182 L13.7272667,20.2723182 L13.7272667,28.2435909 C13.7272667,29.2319545 13.6252025,29.963 13.4212118,30.4367273 C13.2170835,30.9103182 12.8876447,31.2894091 12.4331705,31.5735909 C11.9785587,31.8579091 11.4309612,32 10.7903781,32 C10.692303,32 10.5244886,31.9845909 10.2867975,31.9539091 L10,30.5250909 L10.395189,30.5250909 C10.8394844,30.5250909 11.1791021,30.4713636 11.4141798,30.3637727 C11.6491198,30.2561818 11.8350911,30.0666364 11.9720937,29.7952727 C12.1089587,29.5237727 12.1774599,28.9476364 12.1774599,28.0668636 L12.1774599,20.2723182 Z" id="Shape" fill="currentColor" fill-rule="nonzero"></path>
        </g>
    </g>
</svg>